<svg width="512" height="512" viewBox="0 0 512 512" fill="none" xmlns="http://www.w3.org/2000/svg">
<rect width="512" height="512" rx="256" fill="black"/>
<path d="M121.873 347H148.305V277.336H221.553V253.816H148.305V203.64H230.513V180.12H121.873V347ZM328.226 349.688C339.874 349.688 350.402 347.672 359.81 343.64C369.218 339.608 377.133 334.307 383.554 327.736C389.975 321.165 394.605 314.147 397.442 306.68L373.698 295.48C370.114 304.44 364.365 311.683 356.45 317.208C348.685 322.733 339.277 325.496 328.226 325.496C317.175 325.496 307.394 322.957 298.882 317.88C290.519 312.653 283.949 305.411 279.17 296.152C274.391 286.744 272.002 275.843 272.002 263.448C272.002 251.053 274.391 240.227 279.17 230.968C283.949 221.709 290.519 214.467 298.882 209.24C307.394 204.013 317.175 201.4 328.226 201.4C339.277 201.4 348.685 204.237 356.45 209.912C364.365 215.437 370.114 222.68 373.698 231.64L397.442 220.44C394.605 212.824 389.975 205.805 383.554 199.384C377.133 192.813 369.218 187.512 359.81 183.48C350.402 179.448 339.874 177.432 328.226 177.432C316.279 177.432 305.229 179.597 295.074 183.928C285.069 188.109 276.333 194.083 268.866 201.848C261.549 209.464 255.799 218.573 251.618 229.176C247.586 239.629 245.57 251.053 245.57 263.448C245.57 275.843 247.586 287.341 251.618 297.944C255.799 308.397 261.623 317.507 269.09 325.272C276.557 333.037 285.293 339.085 295.298 343.416C305.453 347.597 316.429 349.688 328.226 349.688Z" fill="url(#paint0_linear_1346_3898)"/>
<defs>
<linearGradient id="paint0_linear_1346_3898" x1="104.5" y1="256" x2="407.5" y2="256" gradientUnits="userSpaceOnUse">
<stop stop-color="#0099FF"/>
<stop offset="1" stop-color="#00EEFF"/>
</linearGradient>
</defs>
</svg>
